<svg width="173" height="172" viewBox="0 0 173 172" fill="none" xmlns="http://www.w3.org/2000/svg">
<g clip-path="url(#clip0_297_454)">
<path d="M101.676 28.1605C82.1442 23.1335 60.872 28.3331 46.0395 41.8983C45.4207 42.4547 44.8019 43.0495 44.2217 43.6443C20.8804 66.8029 20.8611 104.486 44.2217 127.645C67.5631 150.803 105.544 150.803 128.885 127.645C136.717 119.874 142.112 110.338 144.665 99.8236L134.976 97.8282C132.791 106.462 128.324 114.252 121.865 120.661C102.391 139.982 70.7346 139.963 51.2609 120.661C31.7872 101.339 31.7679 69.9304 51.2609 50.6091C64.7203 37.255 85.2189 32.6694 103.146 38.9243C112.718 42.2437 120.492 49.0358 126.235 57.1711C130.297 62.9463 132.385 74.5544 128.44 79.7733L126.487 81.5193C119.061 85.7788 109.682 75.8016 109.682 75.8016L92.2388 58.495C85.5864 51.8947 77.0002 51.3574 71.0246 57.2862C66.5768 61.6992 64.9717 68.2227 66.2287 77.0487L65.8033 77.4708L57.6812 70.5252L57.0624 71.1392L49.4431 86.4503L49.7718 86.7765L57.7392 87.1027L88.7965 117.917L89.338 124.786L89.7441 125.189L105.292 109.762L104.886 109.359L97.8855 108.88L68.9748 80.1954C68.9554 74.9382 70.1931 71.0816 72.6877 68.5873C76.304 64.9993 81.1772 65.4406 85.4897 69.7193L103.242 86.1433C108.174 91.2279 115.696 95.4298 122.445 94.5856C135.092 93.0314 141.145 81.3466 140.314 69.0094C140.062 65.3447 139.211 61.6416 137.742 58.1112C131.302 42.6082 117.553 32.2281 101.637 28.1413L101.676 28.1605Z" fill="#E7DACD"/>
<path d="M86.4374 171.065C39.0198 171.065 0.439941 132.787 0.439941 85.7405C0.439941 38.6942 39.0198 0.41626 86.4374 0.41626C133.855 0.41626 172.435 38.6942 172.435 85.7405C172.435 132.787 133.855 171.065 86.4374 171.065ZM86.4374 5.30892C44.3959 5.28974 10.1864 41.3803 10.1864 85.7405C10.1864 130.101 44.3959 166.172 86.4374 166.172C128.479 166.172 162.688 130.081 162.688 85.7405C162.688 41.3995 128.479 5.28974 86.4374 5.28974V5.30892Z" fill="#E7DACD"/>
</g>
<defs>
<clipPath id="clip0_297_454">
<rect width="172.214" height="170.648" fill="white" transform="translate(0.439941 0.41626)"/>
</clipPath>
</defs>
</svg>
