<svg width="158" height="168" viewBox="0 0 158 168" fill="none" xmlns="http://www.w3.org/2000/svg">
<g clip-path="url(#clip0_356_1028)">
<path d="M77.1298 0.015868C33.7867 0.820025 -0.69989 36.7002 0.107647 80.1512C0.915184 123.602 36.7054 158.17 80.0538 157.361C123.402 156.551 157.889 120.676 157.081 77.2255C156.274 33.7746 120.478 -0.793579 77.1298 0.015868ZM79.3307 118.629C57.3214 119.042 39.1492 101.488 38.7428 79.4317C38.3364 57.3755 55.8436 39.155 77.8476 38.7477C99.857 38.335 118.029 55.8889 118.436 77.945C118.847 100.006 101.335 118.222 79.3307 118.629Z" fill="#9EDFA1"/>
<path d="M77.3145 9.9197C39.4289 10.6286 9.28611 41.9855 9.98809 79.966C10.6953 117.941 41.9782 148.155 79.8691 147.452C117.755 146.743 147.898 115.386 147.196 77.4054C146.494 39.4249 115.205 9.21606 77.3145 9.9197ZM79.241 113.598C60.0079 113.957 44.1211 98.615 43.7621 79.3364C43.4032 60.0578 58.7095 44.1334 77.9426 43.7736C97.1757 43.4139 113.063 58.7564 113.421 78.035C113.78 97.3136 98.4741 113.238 79.241 113.598Z" fill="#9EDFA1"/>
<path d="M78.6182 14.1415C95.5606 14.1415 111.564 20.6965 123.677 32.6001C135.806 44.5196 142.656 60.4599 142.973 77.4848C143.295 94.7212 136.898 111.053 124.965 123.47C113.031 135.887 96.9857 142.902 79.7899 143.219C79.3782 143.225 78.9771 143.23 78.5654 143.23C61.623 143.23 45.62 136.675 33.507 124.771C21.3781 112.852 14.5272 96.9115 14.2105 79.8866C13.8885 62.6502 20.2855 46.3184 32.2191 33.9016C44.1527 21.4847 60.1979 14.4695 77.3937 14.1521C77.8054 14.1468 78.2065 14.1415 78.6182 14.1415ZM78.5813 117.835C78.8293 117.835 79.0721 117.835 79.3202 117.83C100.854 117.428 118.045 99.5409 117.644 77.9609C117.454 67.6338 113.295 57.9681 105.937 50.736C98.5902 43.5144 88.8839 39.5412 78.6024 39.5412C78.3543 39.5412 78.1115 39.5412 77.8634 39.5465C56.3291 39.9486 39.1386 57.8358 39.5397 79.4158C39.7297 89.7429 43.8888 99.4086 51.2464 106.641C58.5934 113.862 68.2997 117.835 78.5813 117.835ZM78.6182 9.90912C78.1854 9.90912 77.7526 9.90912 77.3145 9.9197C39.4289 10.6286 9.28611 41.9855 9.98809 79.966C10.6848 117.507 41.2656 147.462 78.5654 147.462C78.9982 147.462 79.431 147.462 79.8691 147.452C117.755 146.743 147.897 115.386 147.196 77.4054C146.499 39.864 115.918 9.90912 78.6182 9.90912ZM78.5813 113.603C59.6437 113.603 44.1211 98.3928 43.7674 79.3364C43.4085 60.0578 58.7148 44.1334 77.9479 43.7736C78.1696 43.7736 78.3912 43.7684 78.6076 43.7684C97.5452 43.7684 113.068 58.9786 113.421 78.035C113.78 97.3136 98.4741 113.238 79.241 113.598C79.0193 113.598 78.7977 113.603 78.5813 113.603Z" fill="#10100F"/>
<path d="M129.039 116.989C125.915 111.291 121.666 106.635 116.23 103.101C113.306 101.202 110.128 99.9218 106.639 99.4932C102.158 98.943 98.2052 100.377 94.4894 102.71C90.8951 104.974 87.8919 107.932 84.9151 110.915C83.2473 112.587 81.7061 114.397 79.864 115.883C78.5709 116.931 77.4784 118.142 76.5917 119.539C74.0793 123.48 75.2247 128.988 79.0618 131.395C79.4471 131.638 79.579 131.876 79.6001 132.326C79.7901 135.574 81.2152 138.119 84.0126 139.844C84.2606 139.997 84.382 140.145 84.4084 140.431C84.6723 143.008 85.8335 145.097 87.8391 146.722C88.2086 147.028 88.198 147.224 87.8497 147.52C86.7994 148.404 85.844 149.383 84.9309 150.393C82.7511 152.822 81.1413 155.551 80.8457 158.879C80.5555 162.138 81.8802 164.688 84.5668 166.455C88.1083 168.799 92.1777 168.455 95.5398 165.63C98.4691 163.175 101.108 160.398 103.763 157.652C105.077 156.287 106.386 154.922 107.79 153.462C107.906 154.012 107.991 154.409 108.08 154.816C108.54 156.895 109.315 158.847 110.661 160.525C112.82 163.207 115.607 164.376 119.011 163.725C122.331 163.085 124.089 160.821 124.843 157.657C125.477 154.991 125.572 152.234 126.052 149.541C126.976 144.394 127.699 139.198 129.372 134.21C129.916 132.585 130.29 130.908 130.612 129.221C131.399 124.972 131.182 120.877 129.05 116.994L129.039 116.989ZM126.722 128.268C126.39 129.998 126.063 131.734 125.482 133.4C124.041 137.558 123.307 141.875 122.553 146.187C122.041 149.139 121.682 152.102 121.349 155.081C121.207 156.334 121.001 157.562 120.278 158.641C119.328 160.059 117.47 160.345 115.997 159.477C113.643 158.091 112.699 155.895 112.187 153.388C111.886 151.906 111.796 150.398 111.738 148.891C111.701 147.954 111.427 147.182 110.487 146.849C109.511 146.494 108.766 146.907 108.086 147.626C105.874 149.965 103.631 152.277 101.398 154.594C98.9019 157.308 96.4106 160.022 93.6027 162.424C92.0721 163.731 90.3409 164.334 88.33 163.694C86.1343 162.995 84.9573 161.17 85.2476 158.884C85.5062 156.89 86.4404 155.192 87.7388 153.7C89.2431 151.97 91.0059 150.483 92.6421 148.88C92.9008 148.621 93.1805 148.378 93.4391 148.108C94.6742 146.854 94.2572 145.203 92.5577 144.722C91.3543 144.378 90.3673 143.775 89.6495 142.733C88.9633 141.738 88.6572 140.653 88.7206 139.452C88.7997 138.05 88.3617 137.394 87.058 136.929C84.9362 136.172 83.5903 133.845 83.9439 131.538C84.2131 129.776 83.9176 129.263 82.2708 128.644C79.6476 127.655 78.6237 124.464 80.1015 121.909C80.4763 121.264 80.9355 120.676 81.4474 120.137C84.8623 116.576 88.2297 112.968 91.8821 109.646C93.7294 107.953 95.735 106.471 97.9254 105.244C102.306 102.779 106.729 102.821 111.221 104.927C114.657 106.535 117.517 108.879 120.067 111.64C121.719 113.428 123.191 115.354 124.532 117.391C126.728 120.735 127.467 124.337 126.706 128.274L126.722 128.268Z" fill="#10100F"/>
<path d="M126.722 128.268C126.39 129.998 126.062 131.734 125.482 133.4C124.041 137.558 123.307 141.875 122.553 146.187C122.041 149.139 121.682 152.102 121.349 155.081C121.207 156.334 121.001 157.562 120.278 158.641C119.328 160.059 117.47 160.345 115.997 159.477C113.643 158.091 112.699 155.895 112.187 153.388C111.886 151.906 111.796 150.398 111.738 148.891C111.701 147.954 111.427 147.182 110.487 146.849C109.511 146.494 108.766 146.907 108.086 147.626C105.874 149.965 103.631 152.277 101.398 154.594C98.9018 157.308 96.4106 160.022 93.6026 162.424C92.072 163.731 90.3408 164.334 88.3299 163.694C86.1342 162.995 84.9572 161.17 85.2475 158.884C85.5062 156.89 86.4404 155.192 87.7388 153.7C89.243 151.97 91.0059 150.483 92.6421 148.88C92.9007 148.621 93.1804 148.378 93.439 148.108C94.6741 146.854 94.2571 145.203 92.5576 144.722C91.3542 144.378 90.3672 143.775 89.6494 142.733C88.9633 141.738 88.6571 140.653 88.7205 139.452C88.7996 138.05 88.3616 137.394 87.0579 136.929C84.9361 136.172 83.5902 133.844 83.9439 131.538C84.213 129.776 83.9175 129.263 82.2707 128.644C79.6476 127.655 78.6236 124.464 80.1015 121.909C80.4762 121.264 80.9354 120.676 81.4474 120.137C84.8622 116.576 88.2296 112.968 91.882 109.646C93.7293 107.953 95.735 106.471 97.9253 105.244C102.306 102.779 106.729 102.821 111.221 104.927C114.657 106.535 117.517 108.879 120.067 111.64C121.719 113.428 123.191 115.354 124.532 117.391C126.728 120.735 127.466 124.337 126.706 128.274L126.722 128.268Z" fill="#E1DCCF"/>
<path d="M49.9215 122.036C47.235 125.279 43.7885 125.935 41.1336 123.729C38.8535 121.835 38.579 118.968 40.3366 116.222L42.2684 117.825C41.2497 119.396 41.3711 121.004 42.5956 122.02C44.121 123.29 46.1847 122.724 48.0425 120.486C49.911 118.232 50.064 116.031 48.4964 114.725C47.3142 113.741 45.8047 113.873 44.5802 115.037L42.6484 113.434C44.9391 111.318 47.7047 111.148 49.9373 113.01C52.6186 115.238 52.6239 118.772 49.9268 122.031L49.9215 122.036Z" fill="#10100F"/>
<path d="M34.1775 116.603L32.8052 114.672L37.0804 111.619L34.0139 107.302L29.7387 110.36L28.377 108.445L39.0333 100.832L40.395 102.747L35.9562 105.916L39.0227 110.233L43.4615 107.064L44.8338 108.995L34.1775 116.608V116.603Z" fill="#10100F"/>
<path d="M26.1284 104.096L22.9141 95.9592L25.0464 95.1127L27.3898 101.049L30.108 99.9694L28.0443 94.7371L30.1238 93.9118L32.1875 99.1441L35.291 97.9114L32.9581 92.0072L35.0905 91.1607L38.2889 99.2658L26.1284 104.091V104.096Z" fill="#10100F"/>
<path d="M28.3133 91.5099C24.1542 92.1024 21.1563 90.2666 20.6707 86.8489C20.2538 83.9127 21.9691 81.6061 25.1095 80.7543L25.4632 83.2408C23.6528 83.717 22.6711 84.992 22.8928 86.5686C23.1725 88.5366 25.0779 89.5101 27.9544 89.0974C30.8467 88.6848 32.4354 87.1611 32.1504 85.1401C31.934 83.6164 30.7253 82.6959 29.0364 82.7329L28.6827 80.2464C31.7968 80.2199 33.9555 81.9605 34.3672 84.8438C34.858 88.2985 32.4988 90.9173 28.3186 91.5152L28.3133 91.5099Z" fill="#10100F"/>
<path d="M20.3223 77.0033L20.5703 74.6649L26.4553 75.2892L21.0559 70.0939L21.3568 67.2688L26.8195 72.7233L34.3829 68.475L34.0768 71.3531L28.4504 74.4639L29.5799 75.6225L33.5807 76.0458L33.3326 78.3842L20.3275 76.998L20.3223 77.0033Z" fill="#10100F"/>
<path d="M46.5225 30.0818L48.5228 28.8174L55.5109 39.9063L53.5106 41.1707L46.5225 30.0818Z" fill="#10100F"/>
<path d="M55.5904 27.7699L52.0383 29.2882L51.1094 27.1086L60.3829 23.1407L61.3118 25.3204L57.7438 26.8493L61.9504 36.7267L59.7917 37.6525L55.5851 27.7752L55.5904 27.7699Z" fill="#10100F"/>
<path d="M97.007 29.939C99.0707 25.9394 102.538 25.0876 105.473 26.6112C108.471 28.1667 109.6 31.5208 107.584 35.4252C105.568 39.3296 102.121 40.4935 99.1234 38.9381C96.173 37.4092 94.938 33.9386 97.007 29.939ZM100.184 36.9277C101.704 37.716 103.937 37.1446 105.41 34.2825C106.861 31.4732 106.011 29.4628 104.423 28.6375C102.866 27.8334 100.659 28.2143 99.1762 31.087C97.7406 33.8645 98.564 36.0865 100.184 36.9277Z" fill="#10100F"/>
<path d="M108.101 39.0334L114.166 32.362L115.902 33.9439L110.239 40.1761C108.977 41.5675 109.125 42.906 110.276 43.9535C111.384 44.964 112.725 44.9905 113.992 43.5991L119.655 37.3668L121.391 38.9487L115.343 45.6095C113.522 47.6146 110.793 47.5246 108.677 45.5883C106.571 43.6626 106.307 41.0279 108.117 39.0334H108.101Z" fill="#10100F"/>
<path d="M124.173 46.4665L122.014 43.2552L123.972 41.9326L129.604 50.318L127.646 51.6406L125.476 48.4134L116.588 54.4129L115.279 52.4607L124.167 46.4612L124.173 46.4665Z" fill="#10100F"/>
</g>
<defs>
<clipPath id="clip0_356_1028">
<rect width="157" height="168" fill="white" transform="translate(0.0917969)"/>
</clipPath>
</defs>
</svg>
